<?xml version="1.0" standalone="no"?>
<!DOCTYPE svg PUBLIC "-//W3C//DTD SVG 20010904//EN"
 "http://www.w3.org/TR/2001/REC-SVG-20010904/DTD/svg10.dtd">
<svg version="1.0" xmlns="http://www.w3.org/2000/svg"
 width="1202.000000pt" height="775.000000pt" viewBox="0 0 1202.000000 775.000000"
 preserveAspectRatio="xMidYMid meet">

<g transform="translate(0.000000,775.000000) scale(0.100000,-0.100000)"
fill="#0000FF" stroke="none">
<path d="M2795 7641 c-461 -144 -804 -442 -956 -831 -58 -148 -74 -239 -73
-420 1 -133 5 -169 26 -250 67 -247 214 -458 438 -626 203 -153 534 -276 843
-315 138 -16 415 -6 528 20 266 61 482 176 665 353 253 245 387 553 386 888
-1 227 -57 416 -183 610 -57 88 -246 273 -344 338 -113 75 -298 164 -445 214
l-125 43 -335 2 -335 2 -90 -28z"/>
<path d="M4835 5150 c-267 -35 -451 -165 -501 -352 -40 -151 10 -315 135 -438
120 -119 239 -162 446 -162 138 -1 213 15 323 67 296 140 369 518 143 743
-123 123 -312 172 -546 142z"/>
<path d="M6091 5100 c-129 -34 -199 -90 -250 -200 -22 -46 -26 -69 -26 -141 0
-78 3 -91 38 -162 43 -88 92 -135 184 -179 84 -40 175 -53 278 -40 150 20 250
73 312 166 43 64 56 114 51 211 -12 270 -277 426 -587 345z"/>
<path d="M3231 4800 c-196 -41 -351 -148 -429 -296 -156 -298 -11 -678 308
-804 191 -75 480 -56 689 47 145 72 264 220 291 362 34 183 -31 373 -174 509
-85 80 -151 120 -261 158 -71 24 -97 28 -230 30 -82 2 -170 -1 -194 -6z"/>
<path d="M7275 4685 c-83 -18 -125 -37 -170 -76 -99 -87 -102 -249 -6 -366 97
-118 296 -176 440 -128 67 22 143 91 178 163 24 48 28 69 28 137 0 68 -5 88
-28 133 -66 127 -241 181 -442 137z"/>
<path d="M1770 4364 c-316 -40 -524 -153 -633 -344 -42 -73 -61 -155 -61 -260
0 -167 64 -325 186 -455 248 -266 608 -317 973 -139 186 90 314 238 360 414
21 80 21 226 0 304 -56 214 -238 392 -465 456 -74 21 -277 34 -360 24z"/>
<path d="M8300 4351 c-109 -35 -187 -135 -197 -251 -7 -77 20 -138 78 -177 38
-25 51 -28 128 -28 112 0 166 20 224 85 52 58 71 116 65 200 -5 76 -27 106
-100 143 -60 30 -152 43 -198 28z"/>
<path d="M9124 4192 c-195 -92 -54 -342 193 -342 125 0 209 85 182 186 -34
121 -254 212 -375 156z"/>
<path d="M5535 3782 c-181 -55 -329 -169 -387 -300 -93 -207 24 -455 283 -606
123 -71 319 -104 452 -76 171 35 358 192 418 350 92 241 -69 508 -370 613 -75
27 -102 31 -211 34 -98 2 -138 -1 -185 -15z"/>
<path d="M6875 3727 c-121 -32 -226 -111 -272 -206 -23 -46 -28 -69 -28 -131
0 -65 5 -85 32 -141 39 -78 109 -154 193 -208 94 -61 148 -76 270 -76 99 0
110 2 172 33 110 54 200 170 234 302 45 177 -63 334 -286 412 -71 25 -244 33
-315 15z"/>
<path d="M4086 3409 c-178 -24 -307 -80 -402 -174 -147 -145 -188 -360 -110
-569 122 -324 467 -479 845 -381 219 57 399 228 446 426 71 304 -127 608 -445
684 -83 19 -246 27 -334 14z"/>
<path d="M8087 3339 c-262 -62 -339 -336 -149 -533 119 -123 287 -146 462 -64
235 112 254 368 39 530 -89 67 -235 95 -352 67z"/>
<path d="M2480 2990 c-207 -29 -318 -77 -422 -182 -120 -121 -181 -280 -181
-468 0 -190 56 -335 177 -456 84 -84 161 -126 290 -159 342 -87 659 -30 856
152 78 73 147 177 181 273 19 54 23 86 24 195 0 112 -3 141 -24 204 -32 97
-108 209 -185 273 -74 62 -214 130 -316 153 -87 20 -305 28 -400 15z"/>
<path d="M9060 2912 c-30 -10 -69 -26 -86 -35 -41 -21 -102 -90 -110 -124 -3
-16 -7 -34 -9 -40 -6 -20 20 -99 45 -132 43 -61 143 -89 255 -71 161 26 246
108 248 240 0 72 -22 112 -80 146 -61 37 -180 43 -263 16z"/>
<path d="M10041 2809 c-84 -15 -169 -57 -197 -98 -69 -102 29 -240 161 -228
77 8 159 43 215 94 87 78 104 146 52 204 -26 30 -34 32 -103 35 -41 1 -98 -1
-128 -7z"/>
<path d="M6395 2383 c-232 -36 -380 -156 -430 -348 -65 -252 83 -529 331 -616
121 -42 312 -36 465 16 158 54 257 133 316 253 26 53 28 66 28 178 l0 121 -42
84 c-70 141 -175 233 -330 285 -64 22 -99 28 -193 30 -63 1 -128 0 -145 -3z"/>
<path d="M7717 2314 c-141 -25 -236 -92 -294 -204 -25 -49 -28 -65 -28 -155 0
-89 3 -107 28 -161 53 -114 146 -180 296 -208 151 -29 264 -18 378 35 164 78
240 277 173 454 -32 84 -132 183 -215 214 -113 43 -204 49 -338 25z"/>
<path d="M4877 2000 c-159 -27 -290 -91 -388 -190 -128 -129 -181 -305 -148
-486 39 -213 208 -391 431 -451 90 -25 357 -25 448 0 218 60 384 218 435 412
19 76 19 214 0 289 -56 213 -233 376 -457 421 -81 16 -240 18 -321 5z"/>
<path d="M8866 1894 c-166 -36 -240 -111 -239 -244 0 -91 31 -166 100 -240 75
-81 141 -112 248 -118 130 -7 249 41 339 138 59 63 76 103 76 180 0 210 -245
343 -524 284z"/>
<path d="M3330 1589 c-112 -12 -247 -51 -334 -97 -90 -47 -200 -154 -249 -243
-72 -129 -97 -318 -62 -469 44 -188 180 -357 355 -443 146 -72 196 -82 395
-81 201 1 275 17 423 90 158 77 270 201 329 362 34 91 43 258 19 352 -66 260
-276 459 -542 514 -96 20 -233 26 -334 15z"/>
<path d="M9841 1525 c-120 -27 -171 -83 -171 -187 1 -131 112 -251 245 -265
63 -7 142 15 206 55 138 88 105 312 -57 383 -58 26 -146 32 -223 14z"/>
<path d="M10686 1384 c-12 -30 -6 -141 10 -195 31 -106 96 -163 180 -156 65 4
102 31 139 99 26 47 30 64 33 161 l4 107 -180 0 c-155 0 -181 -2 -186 -16z"/>
</g>
</svg>
